<mxfile host="app.diagrams.net" modified="2022-10-31T20:20:18.880Z" agent="5.0 (Windows NT 10.0; Win64; x64) AppleWebKit/537.36 (KHTML, like Gecko) Chrome/106.0.0.0 Safari/537.36" etag="wHvkqe7QdsvlUxNi6HK7" version="20.5.1" type="github">
  <diagram id="fAoxDCi7lynomHrLokpK" name="Strona-1">
    <mxGraphModel dx="1422" dy="754" grid="1" gridSize="10" guides="1" tooltips="1" connect="1" arrows="1" fold="1" page="1" pageScale="1" pageWidth="827" pageHeight="1169" math="0" shadow="0">
      <root>
        <mxCell id="0" />
        <mxCell id="1" parent="0" />
        <mxCell id="RIa6FxpuNO4kiuzXl-Wj-1" value="Task" style="rounded=0;whiteSpace=wrap;html=1;fillColor=#ffe6cc;strokeColor=#d79b00;" vertex="1" parent="1">
          <mxGeometry x="350" y="360" width="120" height="60" as="geometry" />
        </mxCell>
        <mxCell id="RIa6FxpuNO4kiuzXl-Wj-2" value="Planned Time" style="ellipse;whiteSpace=wrap;html=1;fillColor=#fff2cc;strokeColor=#d6b656;" vertex="1" parent="1">
          <mxGeometry x="560" y="450" width="80" height="50" as="geometry" />
        </mxCell>
        <mxCell id="RIa6FxpuNO4kiuzXl-Wj-3" value="Real Time" style="ellipse;whiteSpace=wrap;html=1;fillColor=#fff2cc;strokeColor=#d6b656;" vertex="1" parent="1">
          <mxGeometry x="560" y="365" width="80" height="50" as="geometry" />
        </mxCell>
        <mxCell id="RIa6FxpuNO4kiuzXl-Wj-4" value="Task Name" style="ellipse;whiteSpace=wrap;html=1;fillColor=#fff2cc;strokeColor=#d6b656;" vertex="1" parent="1">
          <mxGeometry x="440" y="520" width="80" height="50" as="geometry" />
        </mxCell>
        <mxCell id="RIa6FxpuNO4kiuzXl-Wj-5" value="Time Indicator" style="ellipse;whiteSpace=wrap;html=1;fillColor=#fff2cc;strokeColor=#d6b656;" vertex="1" parent="1">
          <mxGeometry x="560" y="280" width="80" height="50" as="geometry" />
        </mxCell>
        <mxCell id="RIa6FxpuNO4kiuzXl-Wj-6" value="Priority" style="ellipse;whiteSpace=wrap;html=1;fillColor=#fff2cc;strokeColor=#d6b656;" vertex="1" parent="1">
          <mxGeometry x="220" y="520" width="80" height="50" as="geometry" />
        </mxCell>
        <mxCell id="RIa6FxpuNO4kiuzXl-Wj-7" value="Time Execution" style="ellipse;whiteSpace=wrap;html=1;fillColor=#fff2cc;strokeColor=#d6b656;" vertex="1" parent="1">
          <mxGeometry x="560" y="520" width="80" height="50" as="geometry" />
        </mxCell>
        <mxCell id="RIa6FxpuNO4kiuzXl-Wj-8" value="Status" style="ellipse;whiteSpace=wrap;html=1;fillColor=#fff2cc;strokeColor=#d6b656;" vertex="1" parent="1">
          <mxGeometry x="340" y="520" width="80" height="50" as="geometry" />
        </mxCell>
        <mxCell id="RIa6FxpuNO4kiuzXl-Wj-9" value="Category" style="ellipse;whiteSpace=wrap;html=1;fillColor=#fff2cc;strokeColor=#d6b656;" vertex="1" parent="1">
          <mxGeometry x="150" y="450" width="80" height="50" as="geometry" />
        </mxCell>
        <mxCell id="RIa6FxpuNO4kiuzXl-Wj-10" value="Day" style="rounded=0;whiteSpace=wrap;html=1;fillColor=#ffe6cc;strokeColor=#d79b00;" vertex="1" parent="1">
          <mxGeometry x="350" y="70" width="120" height="60" as="geometry" />
        </mxCell>
        <mxCell id="RIa6FxpuNO4kiuzXl-Wj-11" value="Has" style="rhombus;whiteSpace=wrap;html=1;fillColor=#f8cecc;strokeColor=#b85450;" vertex="1" parent="1">
          <mxGeometry x="360" y="210" width="100" height="80" as="geometry" />
        </mxCell>
        <mxCell id="RIa6FxpuNO4kiuzXl-Wj-15" value="" style="endArrow=none;html=1;rounded=0;exitX=1;exitY=0.5;exitDx=0;exitDy=0;entryX=0;entryY=0.5;entryDx=0;entryDy=0;" edge="1" parent="1" source="RIa6FxpuNO4kiuzXl-Wj-1" target="RIa6FxpuNO4kiuzXl-Wj-3">
          <mxGeometry width="50" height="50" relative="1" as="geometry">
            <mxPoint x="480" y="390" as="sourcePoint" />
            <mxPoint x="530" y="340" as="targetPoint" />
          </mxGeometry>
        </mxCell>
        <mxCell id="RIa6FxpuNO4kiuzXl-Wj-16" value="" style="endArrow=none;html=1;rounded=0;entryX=-0.025;entryY=0.38;entryDx=0;entryDy=0;entryPerimeter=0;exitX=1;exitY=0.75;exitDx=0;exitDy=0;" edge="1" parent="1" source="RIa6FxpuNO4kiuzXl-Wj-1" target="RIa6FxpuNO4kiuzXl-Wj-2">
          <mxGeometry width="50" height="50" relative="1" as="geometry">
            <mxPoint x="390" y="410" as="sourcePoint" />
            <mxPoint x="440" y="360" as="targetPoint" />
          </mxGeometry>
        </mxCell>
        <mxCell id="RIa6FxpuNO4kiuzXl-Wj-17" value="" style="endArrow=none;html=1;rounded=0;entryX=1;entryY=1;entryDx=0;entryDy=0;exitX=0;exitY=0.5;exitDx=0;exitDy=0;" edge="1" parent="1" source="RIa6FxpuNO4kiuzXl-Wj-7" target="RIa6FxpuNO4kiuzXl-Wj-1">
          <mxGeometry width="50" height="50" relative="1" as="geometry">
            <mxPoint x="430" y="550" as="sourcePoint" />
            <mxPoint x="480" y="500" as="targetPoint" />
          </mxGeometry>
        </mxCell>
        <mxCell id="RIa6FxpuNO4kiuzXl-Wj-18" value="" style="endArrow=none;html=1;rounded=0;entryX=0.5;entryY=0;entryDx=0;entryDy=0;exitX=0.75;exitY=1;exitDx=0;exitDy=0;" edge="1" parent="1" source="RIa6FxpuNO4kiuzXl-Wj-1" target="RIa6FxpuNO4kiuzXl-Wj-4">
          <mxGeometry width="50" height="50" relative="1" as="geometry">
            <mxPoint x="390" y="410" as="sourcePoint" />
            <mxPoint x="440" y="360" as="targetPoint" />
          </mxGeometry>
        </mxCell>
        <mxCell id="RIa6FxpuNO4kiuzXl-Wj-19" value="" style="endArrow=none;html=1;rounded=0;entryX=0.5;entryY=0;entryDx=0;entryDy=0;exitX=0.5;exitY=1;exitDx=0;exitDy=0;" edge="1" parent="1" source="RIa6FxpuNO4kiuzXl-Wj-1" target="RIa6FxpuNO4kiuzXl-Wj-8">
          <mxGeometry width="50" height="50" relative="1" as="geometry">
            <mxPoint x="390" y="410" as="sourcePoint" />
            <mxPoint x="440" y="360" as="targetPoint" />
          </mxGeometry>
        </mxCell>
        <mxCell id="RIa6FxpuNO4kiuzXl-Wj-20" value="" style="endArrow=none;html=1;rounded=0;entryX=0;entryY=0.5;entryDx=0;entryDy=0;exitX=1;exitY=0.25;exitDx=0;exitDy=0;" edge="1" parent="1" source="RIa6FxpuNO4kiuzXl-Wj-1" target="RIa6FxpuNO4kiuzXl-Wj-5">
          <mxGeometry width="50" height="50" relative="1" as="geometry">
            <mxPoint x="480" y="350" as="sourcePoint" />
            <mxPoint x="440" y="360" as="targetPoint" />
          </mxGeometry>
        </mxCell>
        <mxCell id="RIa6FxpuNO4kiuzXl-Wj-21" value="" style="endArrow=none;html=1;rounded=0;entryX=0.5;entryY=0;entryDx=0;entryDy=0;exitX=0.25;exitY=1;exitDx=0;exitDy=0;" edge="1" parent="1" source="RIa6FxpuNO4kiuzXl-Wj-1" target="RIa6FxpuNO4kiuzXl-Wj-6">
          <mxGeometry width="50" height="50" relative="1" as="geometry">
            <mxPoint x="390" y="410" as="sourcePoint" />
            <mxPoint x="440" y="360" as="targetPoint" />
          </mxGeometry>
        </mxCell>
        <mxCell id="RIa6FxpuNO4kiuzXl-Wj-22" value="" style="endArrow=none;html=1;rounded=0;entryX=1;entryY=0.5;entryDx=0;entryDy=0;exitX=0;exitY=0.75;exitDx=0;exitDy=0;" edge="1" parent="1" source="RIa6FxpuNO4kiuzXl-Wj-1" target="RIa6FxpuNO4kiuzXl-Wj-9">
          <mxGeometry width="50" height="50" relative="1" as="geometry">
            <mxPoint x="390" y="410" as="sourcePoint" />
            <mxPoint x="440" y="360" as="targetPoint" />
          </mxGeometry>
        </mxCell>
        <mxCell id="RIa6FxpuNO4kiuzXl-Wj-23" value="" style="endArrow=none;html=1;rounded=0;entryX=0.5;entryY=1;entryDx=0;entryDy=0;exitX=0.5;exitY=0;exitDx=0;exitDy=0;" edge="1" parent="1" source="RIa6FxpuNO4kiuzXl-Wj-1" target="RIa6FxpuNO4kiuzXl-Wj-11">
          <mxGeometry width="50" height="50" relative="1" as="geometry">
            <mxPoint x="390" y="410" as="sourcePoint" />
            <mxPoint x="440" y="360" as="targetPoint" />
          </mxGeometry>
        </mxCell>
        <mxCell id="RIa6FxpuNO4kiuzXl-Wj-24" value="" style="endArrow=none;html=1;rounded=0;entryX=0.5;entryY=1;entryDx=0;entryDy=0;exitX=0.5;exitY=0;exitDx=0;exitDy=0;" edge="1" parent="1" source="RIa6FxpuNO4kiuzXl-Wj-11" target="RIa6FxpuNO4kiuzXl-Wj-10">
          <mxGeometry width="50" height="50" relative="1" as="geometry">
            <mxPoint x="390" y="410" as="sourcePoint" />
            <mxPoint x="440" y="360" as="targetPoint" />
          </mxGeometry>
        </mxCell>
        <mxCell id="RIa6FxpuNO4kiuzXl-Wj-25" value="&amp;nbsp;m" style="text;html=1;strokeColor=none;fillColor=none;align=center;verticalAlign=middle;whiteSpace=wrap;rounded=0;" vertex="1" parent="1">
          <mxGeometry x="410" y="310" width="60" height="30" as="geometry" />
        </mxCell>
        <mxCell id="RIa6FxpuNO4kiuzXl-Wj-26" value="1" style="text;html=1;strokeColor=none;fillColor=none;align=center;verticalAlign=middle;whiteSpace=wrap;rounded=0;" vertex="1" parent="1">
          <mxGeometry x="414" y="160" width="60" height="30" as="geometry" />
        </mxCell>
      </root>
    </mxGraphModel>
  </diagram>
</mxfile>
